<svg width="20" height="20" viewBox="0 0 20 20" fill="none" xmlns="http://www.w3.org/2000/svg">
<path d="M8.82097 8.82227C8.50845 9.13489 8.33293 9.55885 8.33301 10.0009C8.33309 10.4429 8.50876 10.8668 8.82138 11.1793C9.13401 11.4919 9.55797 11.6674 10 11.6673C10.4421 11.6672 10.866 11.4916 11.1785 11.1789" stroke="white" stroke-width="1.5" stroke-linecap="round" stroke-linejoin="round"/>
<path d="M13.9008 13.8942C12.7319 14.6255 11.3789 15.0091 10 15C7 15 4.5 13.3333 2.5 10C3.56 8.23333 4.76 6.935 6.1 6.105M8.48333 5.15C8.98253 5.04894 9.49068 4.99869 10 5C13 5 15.5 6.66667 17.5 10C16.945 10.925 16.3508 11.7225 15.7183 12.3917M2.5 2.5L17.5 17.5" stroke="white" stroke-width="1.5" stroke-linecap="round" stroke-linejoin="round"/>
</svg>
