<svg width="22" height="22" viewBox="0 0 22 22" fill="none" xmlns="http://www.w3.org/2000/svg">
<rect x="0.75" y="0.75" width="20.5" height="20.5" rx="10.25" stroke="white" stroke-width="1.5"/>
<path d="M10.4995 18V9.456H12.4995V18H10.4995ZM11.5075 8.048C11.1342 8.048 10.8248 7.93067 10.5795 7.696C10.3448 7.46133 10.2275 7.17867 10.2275 6.848C10.2275 6.50667 10.3448 6.224 10.5795 6C10.8248 5.76533 11.1342 5.648 11.5075 5.648C11.8808 5.648 12.1848 5.76 12.4195 5.984C12.6648 6.19733 12.7875 6.46933 12.7875 6.8C12.7875 7.152 12.6702 7.45067 12.4355 7.696C12.2008 7.93067 11.8915 8.048 11.5075 8.048Z" fill="white"/>
</svg>
